<?xml version="1.0" encoding="UTF-8" standalone="no"?><!DOCTYPE svg PUBLIC "-//W3C//DTD SVG 1.1//EN" "http://www.w3.org/Graphics/SVG/1.1/DTD/svg11.dtd"><!-- Generated by graphviz version 2.40.1 (20161225.0304)
 --><!-- Title: G Pages: 1 --><svg xmlns="http://www.w3.org/2000/svg" xmlns:xlink="http://www.w3.org/1999/xlink" width="1434pt" height="289pt" viewBox="0.00 0.00 1434.36 289.00">
<g id="graph0" class="graph" transform="scale(1 1) rotate(0) translate(4 285)">
<title>G</title>
<polygon fill="#ffffff" stroke="transparent" points="-4,4 -4,-285 1430.357,-285 1430.357,4 -4,4"/>
<g id="clust1" class="cluster">
<title>cluster_module.alb</title>
<polygon fill="none" stroke="#000000" points="242.2372,-142 242.2372,-273 1096.9396,-273 1096.9396,-142 242.2372,-142"/>
<text text-anchor="middle" x="669.5884" y="-256.4" font-family="sans-serif" font-size="14.00" fill="#000000">module.alb</text>
</g>
<g id="clust2" class="cluster">
<title>cluster_module.nsg</title>
<polygon fill="none" stroke="#000000" points="199.0864,-8 199.0864,-85 443.7352,-85 443.7352,-8 199.0864,-8"/>
<text text-anchor="middle" x="321.4108" y="-68.4" font-family="sans-serif" font-size="14.00" fill="#000000">module.nsg</text>
</g>
<g id="clust3" class="cluster">
<title>cluster_module.vmss</title>
<polygon fill="none" stroke="#000000" points="1116.9396,-99 1116.9396,-176 1418.357,-176 1418.357,-99 1116.9396,-99"/>
<text text-anchor="middle" x="1267.6483" y="-159.4" font-family="sans-serif" font-size="14.00" fill="#000000">module.vmss</text>
</g>
<g id="clust4" class="cluster">
<title>cluster_module.vnet</title>
<polygon fill="none" stroke="#000000" points="657.2388,-57 657.2388,-134 1096.5553,-134 1096.5553,-57 657.2388,-57"/>
<text text-anchor="middle" x="876.8971" y="-117.4" font-family="sans-serif" font-size="14.00" fill="#000000">module.vnet</text>
</g>
<!-- azurerm_resource_group.rg -->
<g id="node1" class="node">
<title>azurerm_resource_group.rg</title>
<polygon fill="none" stroke="#000000" points="171.1296,-121 -.0432,-121 -.0432,-85 171.1296,-85 171.1296,-121"/>
<text text-anchor="middle" x="85.5432" y="-98.8" font-family="sans-serif" font-size="14.00" fill="#000000">azurerm_resource_group.rg</text>
</g>
<!-- module.alb.azurerm_lb.main -->
<g id="node2" class="node">
<title>module.alb.azurerm_lb.main</title>
<polygon fill="none" stroke="#000000" points="583.0985,-186 471.6139,-186 471.6139,-150 583.0985,-150 583.0985,-186"/>
<text text-anchor="middle" x="527.3562" y="-163.8" font-family="sans-serif" font-size="14.00" fill="#000000">azurerm_lb.main</text>
</g>
<!-- module.alb.azurerm_public_ip.alb -->
<g id="node6" class="node">
<title>module.alb.azurerm_public_ip.alb</title>
<polygon fill="none" stroke="#000000" points="392.7584,-186 250.0632,-186 250.0632,-150 392.7584,-150 392.7584,-186"/>
<text text-anchor="middle" x="321.4108" y="-163.8" font-family="sans-serif" font-size="14.00" fill="#000000">azurerm_public_ip.alb</text>
</g>
<!-- module.alb.azurerm_lb.main&#45;&gt;module.alb.azurerm_public_ip.alb -->
<g id="edge1" class="edge">
<title>module.alb.azurerm_lb.main-&gt;module.alb.azurerm_public_ip.alb</title>
<path fill="none" stroke="#000000" d="M471.6244,-168C450.4557,-168 425.8862,-168 402.8267,-168"/>
<polygon fill="#000000" stroke="#000000" points="402.7047,-164.5001 392.7047,-168 402.7046,-171.5001 402.7047,-164.5001"/>
</g>
<!-- module.alb.azurerm_lb_backend_address_pool.lb_backend -->
<g id="node3" class="node">
<title>module.alb.azurerm_lb_backend_address_pool.lb_backend</title>
<polygon fill="none" stroke="#000000" points="901.4184,-186 618.83,-186 618.83,-150 901.4184,-150 901.4184,-186"/>
<text text-anchor="middle" x="760.1242" y="-163.8" font-family="sans-serif" font-size="14.00" fill="#000000">azurerm_lb_backend_address_pool.lb_backend</text>
</g>
<!-- module.alb.azurerm_lb_backend_address_pool.lb_backend&#45;&gt;module.alb.azurerm_lb.main -->
<g id="edge2" class="edge">
<title>module.alb.azurerm_lb_backend_address_pool.lb_backend-&gt;module.alb.azurerm_lb.main</title>
<path fill="none" stroke="#000000" d="M618.6842,-168C609.9155,-168 601.3461,-168 593.188,-168"/>
<polygon fill="#000000" stroke="#000000" points="593.0903,-164.5001 583.0903,-168 593.0902,-171.5001 593.0903,-164.5001"/>
</g>
<!-- module.alb.azurerm_lb_probe.http_probe -->
<g id="node4" class="node">
<title>module.alb.azurerm_lb_probe.http_probe</title>
<polygon fill="none" stroke="#000000" points="851.4021,-240 668.8463,-240 668.8463,-204 851.4021,-204 851.4021,-240"/>
<text text-anchor="middle" x="760.1242" y="-217.8" font-family="sans-serif" font-size="14.00" fill="#000000">azurerm_lb_probe.http_probe</text>
</g>
<!-- module.alb.azurerm_lb_probe.http_probe&#45;&gt;module.alb.azurerm_lb.main -->
<g id="edge3" class="edge">
<title>module.alb.azurerm_lb_probe.http_probe-&gt;module.alb.azurerm_lb.main</title>
<path fill="none" stroke="#000000" d="M668.7301,-205.8683C652.1133,-202.5522 634.9802,-198.8788 618.9772,-195 610.5465,-192.9566 601.7355,-190.6208 593.0517,-188.1976"/>
<polygon fill="#000000" stroke="#000000" points="593.9043,-184.8014 583.3285,-185.4354 591.9914,-191.5349 593.9043,-184.8014"/>
</g>
<!-- module.alb.azurerm_lb_rule.lb_rule -->
<g id="node5" class="node">
<title>module.alb.azurerm_lb_rule.lb_rule</title>
<polygon fill="none" stroke="#000000" points="1088.7742,-186 937.4366,-186 937.4366,-150 1088.7742,-150 1088.7742,-186"/>
<text text-anchor="middle" x="1013.1054" y="-163.8" font-family="sans-serif" font-size="14.00" fill="#000000">azurerm_lb_rule.lb_rule</text>
</g>
<!-- module.alb.azurerm_lb_rule.lb_rule&#45;&gt;module.alb.azurerm_lb_backend_address_pool.lb_backend -->
<g id="edge4" class="edge">
<title>module.alb.azurerm_lb_rule.lb_rule-&gt;module.alb.azurerm_lb_backend_address_pool.lb_backend</title>
<path fill="none" stroke="#000000" d="M937.2027,-168C929.0433,-168 920.5476,-168 911.8872,-168"/>
<polygon fill="#000000" stroke="#000000" points="911.6552,-164.5001 901.6552,-168 911.6552,-171.5001 911.6552,-164.5001"/>
</g>
<!-- module.alb.azurerm_lb_rule.lb_rule&#45;&gt;module.alb.azurerm_lb_probe.http_probe -->
<g id="edge5" class="edge">
<title>module.alb.azurerm_lb_rule.lb_rule-&gt;module.alb.azurerm_lb_probe.http_probe</title>
<path fill="none" stroke="#000000" d="M940.7306,-186.0087C927.6231,-189.1174 914.0583,-192.235 901.2712,-195 888.5431,-197.7522 875.1378,-200.5045 861.8604,-203.1425"/>
<polygon fill="#000000" stroke="#000000" points="860.88,-199.7682 851.7453,-205.1355 862.2334,-206.6362 860.88,-199.7682"/>
</g>
<!-- module.alb.azurerm_public_ip.alb&#45;&gt;azurerm_resource_group.rg -->
<g id="edge6" class="edge">
<title>module.alb.azurerm_public_ip.alb-&gt;azurerm_resource_group.rg</title>
<path fill="none" stroke="#000000" d="M256.0218,-149.9802C226.4966,-141.8437 191.4484,-132.1852 160.8316,-123.7479"/>
<polygon fill="#000000" stroke="#000000" points="161.63,-120.3375 151.0594,-121.0549 159.7702,-127.0859 161.63,-120.3375"/>
</g>
<!-- module.nsg.azurerm_network_security_group.nsg -->
<g id="node7" class="node">
<title>module.nsg.azurerm_network_security_group.nsg</title>
<polygon fill="none" stroke="#000000" points="435.5599,-52 207.2617,-52 207.2617,-16 435.5599,-16 435.5599,-52"/>
<text text-anchor="middle" x="321.4108" y="-29.8" font-family="sans-serif" font-size="14.00" fill="#000000">azurerm_network_security_group.nsg</text>
</g>
<!-- module.nsg.azurerm_network_security_group.nsg&#45;&gt;azurerm_resource_group.rg -->
<g id="edge7" class="edge">
<title>module.nsg.azurerm_network_security_group.nsg-&gt;azurerm_resource_group.rg</title>
<path fill="none" stroke="#000000" d="M259.7475,-52.0388C228.328,-61.2302 189.9487,-72.4575 157.2183,-82.0324"/>
<polygon fill="#000000" stroke="#000000" points="155.8709,-78.7798 147.2559,-84.9468 157.8363,-85.4982 155.8709,-78.7798"/>
</g>
<!-- module.vmss.azurerm_linux_virtual_machine_scale_set.vmss -->
<g id="node8" class="node">
<title>module.vmss.azurerm_linux_virtual_machine_scale_set.vmss</title>
<polygon fill="none" stroke="#000000" points="1410.566,-143 1124.7306,-143 1124.7306,-107 1410.566,-107 1410.566,-143"/>
<text text-anchor="middle" x="1267.6483" y="-120.8" font-family="sans-serif" font-size="14.00" fill="#000000">azurerm_linux_virtual_machine_scale_set.vmss</text>
</g>
<!-- module.vmss.azurerm_linux_virtual_machine_scale_set.vmss&#45;&gt;module.alb.azurerm_lb_rule.lb_rule -->
<g id="edge8" class="edge">
<title>module.vmss.azurerm_linux_virtual_machine_scale_set.vmss-&gt;module.alb.azurerm_lb_rule.lb_rule</title>
<path fill="none" stroke="#000000" d="M1160.8056,-143.049C1140.2049,-146.529 1118.8711,-150.133 1099.0394,-153.4831"/>
<polygon fill="#000000" stroke="#000000" points="1098.4044,-150.0407 1089.1272,-155.1576 1099.5705,-156.9429 1098.4044,-150.0407"/>
</g>
<!-- module.vnet.azurerm_subnet.subnets -->
<g id="node9" class="node">
<title>module.vnet.azurerm_subnet.subnets</title>
<polygon fill="none" stroke="#000000" points="1088.5052,-101 937.7056,-101 937.7056,-65 1088.5052,-65 1088.5052,-101"/>
<text text-anchor="middle" x="1013.1054" y="-78.8" font-family="sans-serif" font-size="14.00" fill="#000000">azurerm_subnet.subnets</text>
</g>
<!-- module.vmss.azurerm_linux_virtual_machine_scale_set.vmss&#45;&gt;module.vnet.azurerm_subnet.subnets -->
<g id="edge9" class="edge">
<title>module.vmss.azurerm_linux_virtual_machine_scale_set.vmss-&gt;module.vnet.azurerm_subnet.subnets</title>
<path fill="none" stroke="#000000" d="M1158.222,-106.9445C1138.2564,-103.6501 1117.6932,-100.2572 1098.5503,-97.0985"/>
<polygon fill="#000000" stroke="#000000" points="1099.1164,-93.6447 1088.68,-95.4699 1097.9767,-100.5513 1099.1164,-93.6447"/>
</g>
<!-- module.vnet.azurerm_virtual_network.main -->
<g id="node10" class="node">
<title>module.vnet.azurerm_virtual_network.main</title>
<polygon fill="none" stroke="#000000" points="854.8951,-101 665.3533,-101 665.3533,-65 854.8951,-65 854.8951,-101"/>
<text text-anchor="middle" x="760.1242" y="-78.8" font-family="sans-serif" font-size="14.00" fill="#000000">azurerm_virtual_network.main</text>
</g>
<!-- module.vnet.azurerm_subnet.subnets&#45;&gt;module.vnet.azurerm_virtual_network.main -->
<g id="edge10" class="edge">
<title>module.vnet.azurerm_subnet.subnets-&gt;module.vnet.azurerm_virtual_network.main</title>
<path fill="none" stroke="#000000" d="M937.5454,-83C914.8688,-83 889.5706,-83 865.3442,-83"/>
<polygon fill="#000000" stroke="#000000" points="865.0378,-79.5001 855.0378,-83 865.0377,-86.5001 865.0378,-79.5001"/>
</g>
<!-- module.vnet.azurerm_virtual_network.main&#45;&gt;azurerm_resource_group.rg -->
<g id="edge11" class="edge">
<title>module.vnet.azurerm_virtual_network.main-&gt;azurerm_resource_group.rg</title>
<path fill="none" stroke="#000000" d="M665.2604,-85.8125C537.1798,-89.6099 310.206,-96.3392 181.5434,-100.1538"/>
<polygon fill="#000000" stroke="#000000" points="181.2025,-96.6623 171.3106,-100.4572 181.41,-103.6592 181.2025,-96.6623"/>
</g>
</g>
</svg>